<svg width="24" height="24" viewBox="0 0 24 24" fill="none" xmlns="http://www.w3.org/2000/svg">
<path d="M20.2957 17.2959L17.2957 20.2959C17.0844 20.5073 16.7977 20.626 16.4989 20.626C16.2 20.626 15.9133 20.5073 15.702 20.2959C15.4906 20.0846 15.3719 19.7979 15.3719 19.4991C15.3719 19.2002 15.4906 18.9135 15.702 18.7022L16.781 17.625H4.49979C4.20142 17.625 3.91528 17.5065 3.7043 17.2955C3.49332 17.0845 3.37479 16.7984 3.37479 16.5C3.37479 16.2016 3.49332 15.9155 3.7043 15.7045C3.91528 15.4935 4.20142 15.375 4.49979 15.375H16.781L15.701 14.2959C15.4897 14.0846 15.371 13.7979 15.371 13.4991C15.371 13.2002 15.4897 12.9135 15.701 12.7022C15.9124 12.4908 16.199 12.3721 16.4979 12.3721C16.7968 12.3721 17.0834 12.4908 17.2948 12.7022L20.2948 15.7022C20.3997 15.8066 20.483 15.9308 20.5399 16.0675C20.5967 16.2042 20.6261 16.3508 20.6261 16.4989C20.6262 16.6469 20.5971 16.7935 20.5404 16.9303C20.4837 17.0671 20.4005 17.1913 20.2957 17.2959ZM6.70198 11.2959C6.91332 11.5073 7.19997 11.626 7.49886 11.626C7.79774 11.626 8.08439 11.5073 8.29573 11.2959C8.50707 11.0846 8.62581 10.7979 8.62581 10.4991C8.62581 10.2002 8.50707 9.91352 8.29573 9.70218L7.21854 8.62499H19.4998C19.7982 8.62499 20.0843 8.50646 20.2953 8.29549C20.5063 8.08451 20.6248 7.79836 20.6248 7.49999C20.6248 7.20162 20.5063 6.91547 20.2953 6.70449C20.0843 6.49352 19.7982 6.37499 19.4998 6.37499H7.21854L8.29573 5.29593C8.50707 5.08458 8.62581 4.79794 8.62581 4.49905C8.62581 4.20017 8.50707 3.91352 8.29573 3.70218C8.08439 3.49083 7.79774 3.3721 7.49886 3.3721C7.19997 3.3721 6.91332 3.49083 6.70198 3.70218L3.70198 6.70218C3.5971 6.80669 3.51388 6.93089 3.4571 7.06763C3.40032 7.20438 3.37109 7.35099 3.37109 7.49905C3.37109 7.64712 3.40032 7.79373 3.4571 7.93047C3.51388 8.06722 3.5971 8.19141 3.70198 8.29593L6.70198 11.2959Z" fill="#1A1A1A"/>
</svg>
