<svg width="24" height="24" viewBox="0 0 24 24" fill="none" xmlns="http://www.w3.org/2000/svg">
<path d="M13.125 12V15.75C13.125 16.0484 13.0065 16.3345 12.7955 16.5455C12.5845 16.7565 12.2984 16.875 12 16.875C11.7016 16.875 11.4155 16.7565 11.2045 16.5455C10.9935 16.3345 10.875 16.0484 10.875 15.75V12C10.875 11.7016 10.9935 11.4155 11.2045 11.2045C11.4155 10.9935 11.7016 10.875 12 10.875C12.2984 10.875 12.5845 10.9935 12.7955 11.2045C13.0065 11.4155 13.125 11.7016 13.125 12ZM22.8581 9.24751L21.5625 18.9975C21.5013 19.4482 21.2788 19.8614 20.9363 20.1606C20.5938 20.4599 20.1545 20.6248 19.6997 20.625H4.3003C3.84569 20.6247 3.40658 20.4598 3.06414 20.1608C2.7217 19.8617 2.4991 19.4489 2.43749 18.9985L1.13811 9.24845C1.10267 8.98331 1.12437 8.71366 1.20175 8.45759C1.27914 8.20153 1.41042 7.96499 1.58677 7.76386C1.76313 7.56273 1.98048 7.40166 2.22423 7.29147C2.46798 7.18128 2.73249 7.12453 2.99999 7.12501H6.23905L11.1562 1.50939C11.2618 1.38874 11.392 1.29206 11.538 1.22582C11.684 1.15957 11.8425 1.12531 12.0028 1.12531C12.1631 1.12531 12.3216 1.15957 12.4676 1.22582C12.6136 1.29206 12.7438 1.38874 12.8494 1.50939L17.7609 7.12501H21C21.267 7.12521 21.5309 7.18244 21.774 7.29287C22.0171 7.40329 22.2338 7.56437 22.4097 7.76532C22.5855 7.96627 22.7164 8.20245 22.7936 8.45807C22.8707 8.71368 22.8924 8.98284 22.8572 9.24751H22.8581ZM9.22968 7.12501H14.7712L12 3.95814L9.22968 7.12501ZM20.5734 9.37501H3.42843L4.62843 18.375H19.3716L20.5734 9.37501ZM15.7575 11.8885L15.3825 15.6385C15.3529 15.9353 15.4425 16.2318 15.6315 16.4626C15.8205 16.6935 16.0934 16.8398 16.3903 16.8694C16.4278 16.8694 16.4662 16.875 16.5037 16.875C16.7825 16.8745 17.0511 16.7706 17.2575 16.5834C17.464 16.3961 17.5936 16.1389 17.6212 15.8616L17.9962 12.1116C18.0128 11.9636 17.9998 11.8139 17.958 11.671C17.9162 11.5281 17.8465 11.395 17.7529 11.2792C17.6593 11.1635 17.5436 11.0675 17.4126 10.9968C17.2816 10.926 17.1379 10.882 16.9898 10.8673C16.8416 10.8525 16.692 10.8673 16.5497 10.9108C16.4073 10.9542 16.275 11.0255 16.1604 11.1205C16.0457 11.2155 15.9511 11.3323 15.882 11.4641C15.8128 11.5959 15.7705 11.7402 15.7575 11.8885ZM8.24624 11.8885C8.21338 11.5942 8.06587 11.3248 7.83569 11.1386C7.60551 10.9524 7.31121 10.8645 7.01662 10.8939C6.72202 10.9232 6.45088 11.0675 6.26197 11.2955C6.07306 11.5234 5.98163 11.8167 6.00749 12.1116L6.38249 15.8616C6.41013 16.1389 6.53974 16.3961 6.7462 16.5834C6.95266 16.7706 7.22127 16.8745 7.49999 16.875C7.53655 16.875 7.57499 16.875 7.61249 16.8694C7.90936 16.8398 8.18231 16.6935 8.37131 16.4626C8.5603 16.2318 8.64987 15.9353 8.6203 15.6385L8.24624 11.8885Z" fill="#1A1A1A"/>
</svg>
