<svg width="24" height="24" viewBox="0 0 24 24" fill="none" xmlns="http://www.w3.org/2000/svg">
<path d="M20.25 6.37501H17.8181C18.1661 5.86885 18.3596 5.2725 18.375 4.65845C18.3889 4.19067 18.307 3.72499 18.1343 3.29002C17.9617 2.85504 17.7019 2.45996 17.371 2.12904C17.0401 1.79813 16.645 1.53836 16.21 1.3657C15.775 1.19304 15.3093 1.11114 14.8416 1.12502C14.4095 1.13424 13.984 1.23269 13.5918 1.41419C13.1996 1.59569 12.8492 1.85631 12.5625 2.1797C12.3511 2.4209 12.1627 2.68142 12 2.95783C11.8373 2.68142 11.6489 2.4209 11.4375 2.1797C11.1508 1.85631 10.8004 1.59569 10.4082 1.41419C10.016 1.23269 9.5905 1.13424 9.15844 1.12502C8.69066 1.11114 8.22497 1.19304 7.79 1.3657C7.35503 1.53836 6.95995 1.79813 6.62903 2.12904C6.29811 2.45996 6.03834 2.85504 5.86568 3.29002C5.69303 3.72499 5.61112 4.19067 5.625 4.65845C5.64043 5.2725 5.83389 5.86885 6.18188 6.37501H3.75C3.25272 6.37501 2.77581 6.57256 2.42417 6.92419C2.07254 7.27582 1.875 7.75273 1.875 8.25002V11.25C1.87491 11.6823 2.02417 12.1013 2.29751 12.4361C2.57085 12.7709 2.95149 13.0011 3.375 13.0875V18.75C3.375 19.2473 3.57254 19.7242 3.92417 20.0758C4.27581 20.4275 4.75272 20.625 5.25 20.625H18.75C19.2473 20.625 19.7242 20.4275 20.0758 20.0758C20.4275 19.7242 20.625 19.2473 20.625 18.75V13.0875C21.0485 13.0011 21.4291 12.7709 21.7025 12.4361C21.9758 12.1013 22.1251 11.6823 22.125 11.25V8.25002C22.125 7.75273 21.9275 7.27582 21.5758 6.92419C21.2242 6.57256 20.7473 6.37501 20.25 6.37501ZM19.875 10.875H13.125V8.62502H19.875V10.875ZM14.25 3.6722C14.333 3.5801 14.4341 3.50615 14.5471 3.455C14.66 3.40386 14.7823 3.37663 14.9062 3.37502H14.9391C15.0977 3.37457 15.2548 3.40603 15.4011 3.46753C15.5473 3.52904 15.6797 3.61933 15.7903 3.73303C15.901 3.84674 15.9876 3.98153 16.0451 4.1294C16.1026 4.27727 16.1298 4.43519 16.125 4.59376C16.1234 4.71773 16.0962 4.84002 16.045 4.95296C15.9939 5.06589 15.9199 5.16703 15.8278 5.25001C15.1809 5.82376 14.1169 6.11814 13.2375 6.25877C13.3781 5.38314 13.6725 4.31908 14.25 3.6722ZM8.22187 3.72189C8.44441 3.50174 8.74416 3.37726 9.05719 3.37502H9.09375C9.21772 3.37663 9.34001 3.40386 9.45294 3.455C9.56588 3.50615 9.66702 3.5801 9.75 3.6722C10.3237 4.31908 10.6181 5.3822 10.7578 6.26064C9.88594 6.11908 8.8125 5.8247 8.17219 5.25001C8.08008 5.16703 8.00613 5.06589 7.95499 4.95296C7.90385 4.84002 7.87661 4.71773 7.875 4.59376C7.87085 4.43253 7.89946 4.27214 7.95908 4.12228C8.0187 3.97242 8.1081 3.83621 8.22187 3.72189ZM4.125 8.62502H10.875V10.875H4.125V8.62502ZM5.625 13.125H10.875V18.375H5.625V13.125ZM13.125 18.375V13.125H18.375V18.375H13.125Z" fill="#1A1A1A"/>
</svg>
