<svg width="97" height="96" viewBox="0 0 97 96" fill="none" xmlns="http://www.w3.org/2000/svg">
<rect x="0.148712" width="95.8934" height="95.8934" rx="27.9689" fill="#1A4D2E"/>
<path d="M73.0626 36.9642H64.9316C66.6905 40.0117 67.3944 43.5545 66.9343 47.0429C66.4742 50.5314 64.8758 53.7705 62.387 56.2578C60.2593 58.4279 57.4899 60.4831 54.4333 62.3785C54.242 62.4949 54.0171 62.5437 53.7947 62.517C53.5724 62.4903 53.3654 62.3896 53.2072 62.2311L44.5068 53.5308C44.3176 53.3415 44.0922 53.1922 43.8441 53.0916C43.596 52.9911 43.3303 52.9415 43.0626 52.9457C42.795 52.9499 42.5309 53.0078 42.2861 53.116C42.0413 53.2243 41.8207 53.3806 41.6375 53.5758C41.285 53.9713 41.0988 54.4877 41.1179 55.0172C41.1369 55.5468 41.3598 56.0485 41.7399 56.4176L49.2016 63.8793C49.3131 63.9906 49.3966 64.1266 49.4455 64.2763C49.4944 64.426 49.5072 64.5851 49.4828 64.7407C49.4585 64.8963 49.3977 65.0439 49.3054 65.1715C49.2131 65.2992 49.092 65.4032 48.9519 65.475C39.0354 70.6243 28.3623 74.058 26.809 74.5425C26.0659 74.8886 25.2344 74.9979 24.4272 74.8554C23.6199 74.7129 22.876 74.3256 22.2964 73.7459C21.7168 73.1663 21.3295 72.4224 21.187 71.6152C21.0445 70.8079 21.1537 69.9764 21.4999 69.2334C22.1816 67.0583 28.7418 46.6909 37.6969 35.9329C37.7859 35.8264 37.8961 35.7397 38.0205 35.6782C38.1448 35.6167 38.2806 35.5817 38.4193 35.5756C38.5579 35.5695 38.6962 35.5924 38.8255 35.6427C38.9548 35.693 39.0722 35.7697 39.1703 35.8679L49.6711 46.3713C49.8653 46.5654 50.0975 46.7174 50.3531 46.8177C50.6087 46.9181 50.8822 46.9647 51.1566 46.9546C51.431 46.9445 51.7004 46.878 51.9479 46.7592C52.1955 46.6403 52.4159 46.4717 52.5953 46.2639C52.9236 45.8677 53.0905 45.3624 53.0627 44.8486C53.0349 44.3349 52.8146 43.8504 52.4455 43.492L42.117 33.1634C42.0117 33.0586 41.9311 32.9315 41.8811 32.7915C41.8311 32.6516 41.813 32.5022 41.8281 32.3543C41.8431 32.2065 41.891 32.0638 41.9682 31.9368C42.0454 31.8098 42.15 31.7016 42.2743 31.6202C44.7521 29.9846 47.6364 29.0715 50.604 28.9833C53.5716 28.8951 56.5051 29.6352 59.0756 31.1207V22.9798C59.075 22.7057 59.1308 22.4344 59.2395 22.1828C59.3482 21.9311 59.5076 21.7046 59.7076 21.5172C59.9076 21.3298 60.1441 21.1856 60.4023 21.0935C60.6604 21.0014 60.9348 20.9635 61.2083 20.982C61.7231 21.0268 62.2018 21.265 62.5479 21.6487C62.8941 22.0324 63.082 22.533 63.0737 23.0497V30.1443L69.6514 23.5641C69.837 23.3785 70.0574 23.2313 70.2999 23.1308C70.5424 23.0303 70.8023 22.9786 71.0648 22.9786C71.3273 22.9786 71.5872 23.0303 71.8298 23.1308C72.0723 23.2313 72.2926 23.3785 72.4782 23.5641C72.6639 23.7497 72.8111 23.9701 72.9115 24.2126C73.012 24.4551 73.0637 24.715 73.0637 24.9775C73.0637 25.24 73.012 25.5 72.9115 25.7425C72.8111 25.985 72.6639 26.2053 72.4782 26.391L65.8981 32.9687H72.9927C73.5094 32.9604 74.01 33.1483 74.3937 33.4944C74.7773 33.8406 75.0156 34.3193 75.0604 34.8341C75.0785 35.1074 75.0403 35.3814 74.948 35.6393C74.8558 35.8972 74.7115 36.1333 74.5242 36.3331C74.3368 36.5329 74.1104 36.692 73.859 36.8005C73.6075 36.9091 73.3365 36.9648 73.0626 36.9642Z" fill="#F58700"/>
</svg>
