<svg width="24" height="24" viewBox="0 0 24 24" fill="none" xmlns="http://www.w3.org/2000/svg">
<g clip-path="url(#clip0_431_2842)">
<path d="M7.125 3.75V1.5C7.125 1.20163 7.24353 0.915483 7.45451 0.704505C7.66549 0.493526 7.95164 0.375 8.25 0.375C8.54837 0.375 8.83452 0.493526 9.0455 0.704505C9.25648 0.915483 9.375 1.20163 9.375 1.5V3.75C9.375 4.04837 9.25648 4.33452 9.0455 4.5455C8.83452 4.75647 8.54837 4.875 8.25 4.875C7.95164 4.875 7.66549 4.75647 7.45451 4.5455C7.24353 4.33452 7.125 4.04837 7.125 3.75ZM12 4.875C12.2984 4.875 12.5845 4.75647 12.7955 4.5455C13.0065 4.33452 13.125 4.04837 13.125 3.75V1.5C13.125 1.20163 13.0065 0.915483 12.7955 0.704505C12.5845 0.493526 12.2984 0.375 12 0.375C11.7016 0.375 11.4155 0.493526 11.2045 0.704505C10.9935 0.915483 10.875 1.20163 10.875 1.5V3.75C10.875 4.04837 10.9935 4.33452 11.2045 4.5455C11.4155 4.75647 11.7016 4.875 12 4.875ZM15.75 4.875C16.0484 4.875 16.3345 4.75647 16.5455 4.5455C16.7565 4.33452 16.875 4.04837 16.875 3.75V1.5C16.875 1.20163 16.7565 0.915483 16.5455 0.704505C16.3345 0.493526 16.0484 0.375 15.75 0.375C15.4516 0.375 15.1655 0.493526 14.9545 0.704505C14.7435 0.915483 14.625 1.20163 14.625 1.5V3.75C14.625 4.04837 14.7435 4.33452 14.9545 4.5455C15.1655 4.75647 15.4516 4.875 15.75 4.875ZM23.55 9.9L21 11.8125V17.25C21 18.1451 20.6444 19.0035 20.0115 19.6365C19.3786 20.2694 18.5201 20.625 17.625 20.625H6.375C5.4799 20.625 4.62145 20.2694 3.98852 19.6365C3.35558 19.0035 3 18.1451 3 17.25V11.8125L0.450005 9.9C0.21131 9.72098 0.0535071 9.45447 0.0113114 9.1591C-0.0308843 8.86373 0.0459835 8.56369 0.225005 8.325C0.404026 8.08631 0.670536 7.9285 0.965906 7.88631C1.26128 7.84411 1.56131 7.92098 1.8 8.1L3 9V8.25C3 7.75272 3.19755 7.27581 3.54918 6.92417C3.90081 6.57254 4.37772 6.375 4.875 6.375H19.125C19.6223 6.375 20.0992 6.57254 20.4508 6.92417C20.8025 7.27581 21 7.75272 21 8.25V9L22.2 8.1C22.4387 7.92098 22.7387 7.84411 23.0341 7.88631C23.3295 7.9285 23.596 8.08631 23.775 8.325C23.954 8.56369 24.0309 8.86373 23.9887 9.1591C23.9465 9.45447 23.7887 9.72098 23.55 9.9ZM18.75 8.625H5.25V17.25C5.25 17.5484 5.36853 17.8345 5.57951 18.0455C5.79049 18.2565 6.07664 18.375 6.375 18.375H17.625C17.9234 18.375 18.2095 18.2565 18.4205 18.0455C18.6315 17.8345 18.75 17.5484 18.75 17.25V8.625Z" fill="#1A1A1A"/>
</g>
<defs>
<clipPath id="clip0_431_2842">
<rect width="24" height="24" fill="white"/>
</clipPath>
</defs>
</svg>
