<svg width="24" height="24" viewBox="0 0 24 24" fill="none" xmlns="http://www.w3.org/2000/svg">
<path d="M22.3071 10.0509C22.2862 9.94532 22.2428 9.84544 22.1799 9.75809C22.1169 9.67073 22.0359 9.59795 21.9424 9.54468L19.1458 7.95093L19.1346 4.79906C19.1342 4.69051 19.1103 4.58333 19.0645 4.48492C19.0187 4.38651 18.9521 4.29921 18.8692 4.22906C17.8548 3.37096 16.6866 2.71337 15.4267 2.29125C15.3275 2.25767 15.2224 2.24524 15.1181 2.25477C15.0138 2.26429 14.9126 2.29556 14.8211 2.34656L12.0002 3.92343L9.17643 2.34375C9.08488 2.29246 8.9836 2.26096 8.87911 2.25127C8.77463 2.24158 8.66928 2.25392 8.56987 2.2875C7.31077 2.71233 6.14384 3.37247 5.13112 4.23281C5.0484 4.30286 4.98185 4.39 4.93604 4.48824C4.89024 4.58648 4.86628 4.69348 4.8658 4.80187L4.85174 7.95656L2.05518 9.55031C1.96162 9.60357 1.88062 9.67636 1.81769 9.76371C1.75476 9.85107 1.71138 9.95094 1.69049 10.0566C1.43455 11.3427 1.43455 12.6667 1.69049 13.9528C1.71138 14.0584 1.75476 14.1583 1.81769 14.2457C1.88062 14.333 1.96162 14.4058 2.05518 14.4591L4.85174 16.0528L4.86299 19.2056C4.86333 19.3142 4.88723 19.4214 4.93304 19.5198C4.97884 19.6182 5.04547 19.7055 5.1283 19.7756C6.14275 20.6337 7.31095 21.2913 8.5708 21.7134C8.67002 21.747 8.77517 21.7594 8.87947 21.7499C8.98378 21.7404 9.08494 21.7091 9.17643 21.6581L12.0002 20.0766L14.8239 21.6562C14.9357 21.7185 15.0616 21.7508 15.1896 21.75C15.2715 21.75 15.3528 21.7367 15.4305 21.7106C16.6893 21.286 17.8561 20.6265 18.8692 19.7672C18.952 19.6971 19.0185 19.61 19.0643 19.5118C19.1101 19.4135 19.1341 19.3065 19.1346 19.1981L19.1486 16.0434L21.9452 14.4497C22.0387 14.3964 22.1197 14.3236 22.1827 14.2363C22.2456 14.1489 22.289 14.049 22.3099 13.9434C22.5644 12.6583 22.5634 11.3357 22.3071 10.0509ZM12.0002 15.75C11.2585 15.75 10.5335 15.5301 9.91679 15.118C9.30011 14.706 8.81946 14.1203 8.53563 13.4351C8.2518 12.7498 8.17754 11.9958 8.32223 11.2684C8.46693 10.541 8.82408 9.87279 9.34853 9.34835C9.87297 8.8239 10.5412 8.46675 11.2686 8.32205C11.996 8.17736 12.75 8.25162 13.4352 8.53545C14.1205 8.81928 14.7061 9.29992 15.1182 9.91661C15.5302 10.5333 15.7502 11.2583 15.7502 12C15.7502 12.9946 15.3551 13.9484 14.6518 14.6516C13.9486 15.3549 12.9947 15.75 12.0002 15.75Z" fill="#1A1A1A"/>
</svg>
