<svg width="24" height="24" viewBox="0 0 24 24" fill="none" xmlns="http://www.w3.org/2000/svg">
<path d="M22.5461 9.70501L15.0461 2.20501C14.8888 2.04755 14.6883 1.94028 14.4701 1.89677C14.2518 1.85326 14.0256 1.87546 13.8199 1.96057C13.6143 2.04567 13.4385 2.18986 13.3148 2.37488C13.1912 2.55991 13.1251 2.77746 13.1251 3.00001V6.44438C10.7101 6.73688 8.09451 7.93407 5.92982 9.7697C3.19607 12.0891 1.49357 15.0844 1.13544 18.2072C1.09916 18.5206 1.16261 18.8374 1.31675 19.1126C1.4709 19.3879 1.7079 19.6075 1.99406 19.7403C2.28021 19.8731 2.60095 19.9123 2.91066 19.8523C3.22038 19.7924 3.5033 19.6363 3.71919 19.4063C4.69982 18.3619 8.12544 15.1181 13.1251 14.6794V18C13.1253 18.2224 13.1914 18.4397 13.315 18.6245C13.4387 18.8093 13.6143 18.9534 13.8197 19.0384C14.0252 19.1235 14.2512 19.1458 14.4693 19.1025C14.6874 19.0591 14.8878 18.9521 15.0451 18.795L22.5451 11.295C22.7559 11.0842 22.8744 10.7983 22.8746 10.5002C22.8748 10.2021 22.7566 9.91607 22.5461 9.70501ZM15.3751 15.2813V13.5C15.3751 13.2016 15.2566 12.9155 15.0456 12.7045C14.8346 12.4935 14.5485 12.375 14.2501 12.375C9.65638 12.375 6.13419 14.3963 3.95732 16.1353C4.62576 14.4328 5.79763 12.8334 7.38576 11.4863C9.49701 9.6947 12.0629 8.62501 14.2501 8.62501C14.5485 8.62501 14.8346 8.50648 15.0456 8.2955C15.2566 8.08453 15.3751 7.79838 15.3751 7.50001V5.71876L20.1564 10.5L15.3751 15.2813Z" fill="#1A1A1A"/>
</svg>
